<?xml version="1.0" encoding="UTF-8" standalone="no"?>
<!DOCTYPE svg PUBLIC "-//W3C//DTD SVG 1.0//EN" "http://www.w3.org/TR/2001/PR-SVG-20010719/DTD/svg10.dtd">
<svg width="65cm" height="47cm" viewBox="64 34 1283 925" xmlns="http://www.w3.org/2000/svg" xmlns:xlink="http://www.w3.org/1999/xlink">
  <ellipse style="fill: #000000" cx="75" cy="204.707" rx="10" ry="10"/>
  <g>
    <rect style="fill: #ffffff" x="181" y="186.707" width="156.144" height="36" rx="20" ry="20"/>
    <rect style="fill: none; fill-opacity:0; stroke-width: 2; stroke: #000000" x="181" y="186.707" width="156.144" height="36" rx="20" ry="20"/>
    <text font-size="12.7998" style="fill: #000000;text-anchor:middle;font-family:sans-serif;font-style:normal;font-weight:normal" x="259.072" y="208.607">
      <tspan x="259.072" y="208.607">current_value = start</tspan>
    </text>
  </g>
  <g>
    <polyline style="fill: none; fill-opacity:0; stroke-width: 2; stroke: #000000" points="86.0054,204.707 96.0054,204.707 171,204.707 176.528,204.707 "/>
    <polyline style="fill: none; fill-opacity:0; stroke-width: 2; stroke: #000000" points="168.764,209.707 178.764,204.707 168.764,199.707 "/>
  </g>
  <g>
    <polygon style="fill: #ffffff" points="437.234,204.707 457.234,184.707 477.234,204.707 457.234,224.707 "/>
    <polygon style="fill: none; fill-opacity:0; stroke-width: 2; stroke: #000000" points="437.234,204.707 457.234,184.707 477.234,204.707 457.234,224.707 "/>
  </g>
  <g>
    <polyline style="fill: none; fill-opacity:0; stroke-width: 2; stroke: #000000" points="337.144,204.707 347.144,204.707 427.234,204.707 432.762,204.707 "/>
    <polyline style="fill: none; fill-opacity:0; stroke-width: 2; stroke: #000000" points="424.998,209.707 434.998,204.707 424.998,199.707 "/>
  </g>
  <g>
    <ellipse style="fill: #ffffff" cx="457.234" cy="51" rx="15" ry="15"/>
    <ellipse style="fill: none; fill-opacity:0; stroke-width: 2; stroke: #000000" cx="457.234" cy="51" rx="15" ry="15"/>
    <ellipse style="fill: #000000" cx="457.234" cy="51" rx="10" ry="10"/>
  </g>
  <g>
    <polyline style="fill: none; fill-opacity:0; stroke-width: 2; stroke: #000000" points="457.234,184.707 457.234,174.707 457.234,77.0078 457.234,71.4799 "/>
    <polyline style="fill: none; fill-opacity:0; stroke-width: 2; stroke: #000000" points="462.234,79.2439 457.234,69.2439 452.234,79.2439 "/>
    <text font-size="12.7998" style="fill: #000000;text-anchor:middle;font-family:sans-serif;font-style:normal;font-weight:normal" x="381.234" y="110.355">[current_value &gt; stop]</text>
  </g>
  <g>
    <rect style="fill: #ffffff" x="621.656" y="186.707" width="142.344" height="36" rx="20" ry="20"/>
    <rect style="fill: none; fill-opacity:0; stroke-width: 2; stroke: #000000" x="621.656" y="186.707" width="142.344" height="36" rx="20" ry="20"/>
    <text font-size="12.7998" style="fill: #000000;text-anchor:middle;font-family:sans-serif;font-style:normal;font-weight:normal" x="692.828" y="208.607">
      <tspan x="692.828" y="208.607">yield current_value</tspan>
    </text>
  </g>
  <g>
    <polyline style="fill: none; fill-opacity:0; stroke-width: 2; stroke: #000000" points="477.234,204.707 487.234,204.707 611.656,204.707 617.184,204.707 "/>
    <polyline style="fill: none; fill-opacity:0; stroke-width: 2; stroke: #000000" points="609.42,209.707 619.42,204.707 609.42,199.707 "/>
    <text font-size="12.7998" style="fill: #000000;text-anchor:middle;font-family:sans-serif;font-style:normal;font-weight:normal" x="539.445" y="194.707">[else]</text>
  </g>
  <g>
    <polygon style="fill: #ffffff" points="982.022,204.707 1002.02,184.707 1022.02,204.707 1002.02,224.707 "/>
    <polygon style="fill: none; fill-opacity:0; stroke-width: 2; stroke: #000000" points="982.022,204.707 1002.02,184.707 1022.02,204.707 1002.02,224.707 "/>
  </g>
  <g>
    <polyline style="fill: none; fill-opacity:0; stroke-width: 2; stroke: #000000" points="764,204.707 774,204.707 972.022,204.707 977.55,204.707 "/>
    <polyline style="fill: none; fill-opacity:0; stroke-width: 2; stroke: #000000" points="969.786,209.707 979.786,204.707 969.786,199.707 "/>
  </g>
  <g>
    <rect style="fill: #ffffff" x="1187.27" y="186.707" width="136.25" height="36" rx="20" ry="20"/>
    <rect style="fill: none; fill-opacity:0; stroke-width: 2; stroke: #000000" x="1187.27" y="186.707" width="136.25" height="36" rx="20" ry="20"/>
    <text font-size="12.7998" style="fill: #000000;text-anchor:middle;font-family:sans-serif;font-style:normal;font-weight:normal" x="1255.4" y="208.607">
      <tspan x="1255.4" y="208.607">initialize step_size</tspan>
    </text>
  </g>
  <g>
    <polyline style="fill: none; fill-opacity:0; stroke-width: 2; stroke: #000000" points="1022.02,204.707 1032.02,204.707 1177.27,204.707 1182.8,204.707 "/>
    <polyline style="fill: none; fill-opacity:0; stroke-width: 2; stroke: #000000" points="1175.04,209.707 1185.04,204.707 1175.04,199.707 "/>
    <text font-size="12.7998" style="fill: #000000;text-anchor:middle;font-family:sans-serif;font-style:normal;font-weight:normal" x="1094.65" y="194.707">[step_size is None]</text>
  </g>
  <g>
    <polygon style="fill: #ffffff" points="982.022,408 1002.02,388 1022.02,408 1002.02,428 "/>
    <polygon style="fill: none; fill-opacity:0; stroke-width: 2; stroke: #000000" points="982.022,408 1002.02,388 1022.02,408 1002.02,428 "/>
  </g>
  <g>
    <polyline style="fill: none; fill-opacity:0; stroke-width: 2; stroke: #000000" points="1002.02,224.707 1002.02,234.707 1002.02,378 1002.02,383.528 "/>
    <polyline style="fill: none; fill-opacity:0; stroke-width: 2; stroke: #000000" points="997.022,375.764 1002.02,385.764 1007.02,375.764 "/>
    <text font-size="12.7998" style="fill: #000000;text-anchor:middle;font-family:sans-serif;font-style:normal;font-weight:normal" x="972.522" y="304.354">[else]</text>
  </g>
  <g>
    <polyline style="fill: none; fill-opacity:0; stroke-width: 2; stroke: #000000" points="1255.4,222.707 1255.4,408 1026.49,408 "/>
    <polyline style="fill: none; fill-opacity:0; stroke-width: 2; stroke: #000000" points="1034.26,403 1024.26,408 1034.26,413 "/>
  </g>
  <g>
    <rect style="fill: #ffffff" x="937.972" y="546.964" width="128.1" height="36" rx="20" ry="20"/>
    <rect style="fill: none; fill-opacity:0; stroke-width: 2; stroke: #000000" x="937.972" y="546.964" width="128.1" height="36" rx="20" ry="20"/>
    <text font-size="12.7998" style="fill: #000000;text-anchor:middle;font-family:sans-serif;font-style:normal;font-weight:normal" x="1002.02" y="568.864">
      <tspan x="1002.02" y="568.864">update step_size</tspan>
    </text>
  </g>
  <g>
    <polyline style="fill: none; fill-opacity:0; stroke-width: 2; stroke: #000000" points="1002.02,428 1002.02,438 1002.02,536.964 1002.02,542.492 "/>
    <polyline style="fill: none; fill-opacity:0; stroke-width: 2; stroke: #000000" points="997.022,534.728 1002.02,544.728 1007.02,534.728 "/>
    <text font-size="12.7998" style="fill: #000000;text-anchor:middle;font-family:sans-serif;font-style:normal;font-weight:normal" x="1180.5" y="443.982">[current_value &gt;= threshold and threshold != stop]</text>
  </g>
  <g>
    <polygon style="fill: #ffffff" points="843.093,564.964 863.093,544.964 883.093,564.964 863.093,584.964 "/>
    <polygon style="fill: none; fill-opacity:0; stroke-width: 2; stroke: #000000" points="843.093,564.964 863.093,544.964 883.093,564.964 863.093,584.964 "/>
  </g>
  <g>
    <polyline style="fill: none; fill-opacity:0; stroke-width: 2; stroke: #000000" points="982.022,408 863.093,408 863.093,540.492 "/>
    <polyline style="fill: none; fill-opacity:0; stroke-width: 2; stroke: #000000" points="858.093,532.728 863.093,542.728 868.093,532.728 "/>
    <text font-size="12.7998" style="fill: #000000;text-anchor:middle;font-family:sans-serif;font-style:normal;font-weight:normal" x="912.558" y="398">[else]</text>
  </g>
  <g>
    <polyline style="fill: none; fill-opacity:0; stroke-width: 2; stroke: #000000" points="937.972,564.964 927.972,564.964 893.093,564.964 887.565,564.964 "/>
    <polyline style="fill: none; fill-opacity:0; stroke-width: 2; stroke: #000000" points="895.329,559.964 885.329,564.964 895.329,569.964 "/>
  </g>
  <g>
    <rect style="fill: #ffffff" x="594.806" y="546.964" width="196.044" height="36" rx="20" ry="20"/>
    <rect style="fill: none; fill-opacity:0; stroke-width: 2; stroke: #000000" x="594.806" y="546.964" width="196.044" height="36" rx="20" ry="20"/>
    <text font-size="12.7998" style="fill: #000000;text-anchor:middle;font-family:sans-serif;font-style:normal;font-weight:normal" x="692.828" y="568.864">
      <tspan x="692.828" y="568.864">current_value += step_size</tspan>
    </text>
  </g>
  <g>
    <polygon style="fill: #ffffff" points="672.828,683.709 692.828,663.709 712.828,683.709 692.828,703.709 "/>
    <polygon style="fill: none; fill-opacity:0; stroke-width: 2; stroke: #000000" points="672.828,683.709 692.828,663.709 712.828,683.709 692.828,703.709 "/>
  </g>
  <g>
    <polygon style="fill: #ffffff" points="672.828,800.268 692.828,780.268 712.828,800.268 692.828,820.268 "/>
    <polygon style="fill: none; fill-opacity:0; stroke-width: 2; stroke: #000000" points="672.828,800.268 692.828,780.268 712.828,800.268 692.828,820.268 "/>
  </g>
  <g>
    <polyline style="fill: none; fill-opacity:0; stroke-width: 2; stroke: #000000" points="692.828,703.709 692.828,713.709 692.828,770.268 692.828,775.796 "/>
    <polyline style="fill: none; fill-opacity:0; stroke-width: 2; stroke: #000000" points="687.828,768.032 692.828,778.032 697.828,768.032 "/>
    <text font-size="12.7998" style="fill: #000000;text-anchor:middle;font-family:sans-serif;font-style:normal;font-weight:normal" x="874.828" y="733.488">[current_value &gt; threshold and current_value &lt; stop]</text>
  </g>
  <g>
    <rect style="fill: #ffffff" x="392.5" y="922.25" width="129.469" height="36" rx="10" ry="10"/>
    <rect style="fill: none; fill-opacity:0; stroke-width: 2; stroke: #000000" x="392.5" y="922.25" width="129.469" height="36" rx="10" ry="10"/>
    <text font-size="12.7998" style="fill: #000000;text-anchor:middle;font-family:sans-serif;font-style:normal;font-weight:normal" x="457.234" y="944.15">
      <tspan x="457.234" y="944.15">update threshold</tspan>
    </text>
  </g>
  <g>
    <polyline style="fill: none; fill-opacity:0; stroke-width: 2; stroke: #000000" points="692.828,820.268 692.828,940.25 526.441,940.25 "/>
    <polyline style="fill: none; fill-opacity:0; stroke-width: 2; stroke: #000000" points="534.205,935.25 524.205,940.25 534.205,945.25 "/>
    <text font-size="12.7998" style="fill: #000000;text-anchor:middle;font-family:sans-serif;font-style:normal;font-weight:normal" x="833.061" y="866.785">[length(step_change_thresholds) &gt; 0]</text>
  </g>
  <g>
    <rect style="fill: #ffffff" x="393.85" y="782.268" width="126.769" height="36" rx="20" ry="20"/>
    <rect style="fill: none; fill-opacity:0; stroke-width: 2; stroke: #000000" x="393.85" y="782.268" width="126.769" height="36" rx="20" ry="20"/>
    <text font-size="12.7998" style="fill: #000000;text-anchor:middle;font-family:sans-serif;font-style:normal;font-weight:normal" x="457.234" y="804.168">
      <tspan x="457.234" y="804.168">threshold = stop</tspan>
    </text>
  </g>
  <g>
    <polygon style="fill: #ffffff" points="437.234,564.964 457.234,544.964 477.234,564.964 457.234,584.964 "/>
    <polygon style="fill: none; fill-opacity:0; stroke-width: 2; stroke: #000000" points="437.234,564.964 457.234,544.964 477.234,564.964 457.234,584.964 "/>
  </g>
  <g>
    <polyline style="fill: none; fill-opacity:0; stroke-width: 2; stroke: #000000" points="672.828,683.709 575.031,683.709 575.031,564.964 481.707,564.964 "/>
    <polyline style="fill: none; fill-opacity:0; stroke-width: 2; stroke: #000000" points="489.47,559.964 479.47,564.964 489.47,569.964 "/>
    <text font-size="12.7998" style="fill: #000000;text-anchor:middle;font-family:sans-serif;font-style:normal;font-weight:normal" x="621.676" y="668.369">[else]</text>
  </g>
  <g>
    <polyline style="fill: none; fill-opacity:0; stroke-width: 2; stroke: #000000" points="672.828,800.268 662.828,800.268 530.619,800.268 525.091,800.268 "/>
    <polyline style="fill: none; fill-opacity:0; stroke-width: 2; stroke: #000000" points="532.855,795.268 522.855,800.268 532.855,805.268 "/>
    <text font-size="12.7998" style="fill: #000000;text-anchor:middle;font-family:sans-serif;font-style:normal;font-weight:normal" x="624.27" y="790.272">[else]</text>
  </g>
  <g>
    <polyline style="fill: none; fill-opacity:0; stroke-width: 2; stroke: #000000" points="457.234,782.268 457.234,772.268 457.234,594.964 457.234,589.436 "/>
    <polyline style="fill: none; fill-opacity:0; stroke-width: 2; stroke: #000000" points="462.234,597.2 457.234,587.2 452.234,597.2 "/>
  </g>
  <g>
    <polyline style="fill: none; fill-opacity:0; stroke-width: 2; stroke: #000000" points="392.5,940.25 329.887,940.25 329.887,564.964 432.762,564.964 "/>
    <polyline style="fill: none; fill-opacity:0; stroke-width: 2; stroke: #000000" points="424.998,569.964 434.998,564.964 424.998,559.964 "/>
  </g>
  <g>
    <polyline style="fill: none; fill-opacity:0; stroke-width: 2; stroke: #000000" points="457.234,544.964 457.234,534.964 457.234,234.707 457.234,229.179 "/>
    <polyline style="fill: none; fill-opacity:0; stroke-width: 2; stroke: #000000" points="462.234,236.943 457.234,226.943 452.234,236.943 "/>
  </g>
  <g>
    <polyline style="fill: none; fill-opacity:0; stroke-width: 2; stroke: #000000" points="843.093,564.964 833.093,564.964 800.85,564.964 795.322,564.964 "/>
    <polyline style="fill: none; fill-opacity:0; stroke-width: 2; stroke: #000000" points="803.086,559.964 793.086,564.964 803.086,569.964 "/>
  </g>
  <g>
    <polyline style="fill: none; fill-opacity:0; stroke-width: 2; stroke: #000000" points="692.828,582.964 692.828,592.964 692.828,653.709 692.828,659.237 "/>
    <polyline style="fill: none; fill-opacity:0; stroke-width: 2; stroke: #000000" points="687.828,651.473 692.828,661.473 697.828,651.473 "/>
  </g>
</svg>
